<?xml version="1.0" standalone="no"?>
<!DOCTYPE svg PUBLIC "-//W3C//DTD SVG 20010904//EN"
 "http://www.w3.org/TR/2001/REC-SVG-20010904/DTD/svg10.dtd">
<svg version="1.0" xmlns="http://www.w3.org/2000/svg"
 width="500.000000pt" height="500.000000pt" viewBox="0 0 500.000000 500.000000"
 preserveAspectRatio="xMidYMid meet">

<g transform="translate(0.000000,500.000000) scale(0.100000,-0.100000)"
fill="#000000" stroke="none">
<path id="string_one" d="M4276 3603 c-67 -131 -416 -1188 -416 -1261 0 -26 25 -29 39 -4 5 9
30 89 55 177 79 270 195 609 316 921 27 71 34 81 51 77 39 -11 46 41 13 95
-19 30 -40 28 -58 -5z"/>
<path id="string_two" d="M3076 3328 c-14 -24 -64 -126 -111 -227 -48 -102 -94 -196 -104 -210
-10 -15 -58 -98 -107 -186 -49 -88 -103 -176 -121 -195 -28 -31 -34 -33 -47
-20 -8 8 -26 46 -41 85 -42 112 -61 112 -140 5 -32 -44 -61 -78 -63 -75 -8 8
89 145 118 165 16 11 45 27 64 35 20 9 36 20 36 26 0 20 -59 1 -107 -33 -48
-35 -141 -164 -150 -209 -5 -25 -7 -26 -34 -17 -39 13 -45 28 -59 128 -12 89
-29 134 -55 144 -25 9 -71 -20 -96 -60 l-22 -37 -14 45 c-15 53 -30 62 -69 42
-32 -17 -45 -33 -97 -124 -35 -61 -42 -53 -16 18 5 13 9 30 9 38 0 29 -22 8
-40 -37 -37 -99 -150 -221 -245 -265 -58 -27 -78 -29 -94 -10 -21 25 -2 67 38
83 41 17 106 76 127 115 19 36 18 74 -2 82 -38 15 -107 -49 -152 -140 -19 -39
-35 -56 -61 -68 -52 -23 -235 -85 -239 -81 -2 1 13 28 32 58 76 118 107 217
80 255 -21 30 -40 28 -130 -17 -128 -64 -197 -136 -148 -155 24 -9 27 -8 21
14 -6 25 55 75 149 121 76 38 99 34 90 -14 -8 -42 -64 -160 -110 -231 -20 -31
-36 -61 -36 -66 0 -15 24 -12 82 11 28 11 92 33 140 49 l88 28 0 -28 c0 -96
152 -58 281 71 l57 57 -19 -66 c-10 -37 -19 -75 -19 -84 0 -39 23 -14 56 60
102 223 158 313 184 297 16 -10 11 -106 -10 -165 -23 -67 -24 -80 -6 -80 8 0
28 28 45 63 37 78 108 177 126 177 18 0 24 -20 35 -120 12 -102 26 -125 88
-143 l47 -14 40 41 c22 23 62 70 88 104 26 35 52 60 57 57 4 -3 18 -34 29 -68
28 -83 46 -107 80 -107 30 0 69 35 106 96 l22 37 -4 -50 c-5 -45 -3 -52 17
-63 37 -20 84 -7 277 73 210 87 289 113 403 129 52 7 84 16 87 25 28 71 -201
16 -526 -127 -90 -40 -177 -73 -195 -74 -59 -2 -52 28 77 319 133 303 207 453
225 451 17 -1 29 30 31 77 1 39 -14 33 -43 -15z m-1446 -738 c0 -25 -100 -130
-124 -130 -16 0 -15 4 6 41 28 50 84 109 103 109 8 0 15 -9 15 -20z"/>
<path d="M821 2830 c-71 -39 -139 -91 -230 -176 -86 -80 -221 -231 -221 -248
0 -6 12 5 27 24 50 65 217 231 297 296 84 67 180 123 192 112 26 -27 -65 -193
-275 -496 -227 -328 -291 -426 -288 -437 8 -20 68 -7 122 26 30 19 115 76 190
127 75 51 193 120 261 153 68 33 124 64 124 69 0 23 -25 15 -136 -41 -110 -55
-160 -87 -410 -258 -50 -35 -99 -61 -108 -59 -18 3 34 86 226 359 262 374 361
566 298 576 -8 2 -39 -11 -69 -27z"/>
<path d="M3500 2555 c0 -10 7 -15 18 -13 21 4 19 22 -2 26 -10 2 -16 -3 -16
-13z"/>
<path d="M3035 2336 c-492 -106 -888 -228 -1385 -428 -199 -80 -250 -104 -250
-118 0 -13 -9 -16 131 44 422 181 968 358 1398 452 101 22 125 24 131 13 7
-11 27 -8 102 16 108 33 128 42 128 55 0 17 -47 10 -255 -34z"/>
<path d="M3758 2208 c-32 -33 -58 -65 -58 -69 0 -5 9 -32 20 -61 27 -73 90
-107 154 -82 29 11 16 23 -19 17 -59 -10 -115 25 -115 71 0 11 13 16 50 18 28
2 50 7 50 11 -1 4 13 24 29 43 35 39 39 73 13 97 -34 31 -63 21 -124 -45z
m107 3 c0 -25 -7 -39 -27 -54 -26 -19 -30 -20 -60 -5 l-33 15 42 42 c51 51 78
52 78 2z"/>
<path d="M3065 2104 c-367 -69 -843 -204 -1396 -395 -216 -75 -324 -108 -331
-101 -7 7 -24 5 -53 -5 -46 -15 -71 -36 -61 -51 11 -18 104 9 393 109 685 239
1205 377 1636 434 31 4 47 11 47 21 0 21 -81 17 -235 -12z"/>
</g>
</svg>
